<svg width="188" height="188" xmlns="http://www.w3.org/2000/svg" xmlns:xlink="http://www.w3.org/1999/xlink" xml:space="preserve" overflow="hidden"><defs><filter id="fx0" x="-10%" y="-10%" width="120%" height="120%" filterUnits="userSpaceOnUse" primitiveUnits="userSpaceOnUse"><feComponentTransfer color-interpolation-filters="sRGB"><feFuncR type="discrete" tableValues="0.266667 0.266667"/><feFuncG type="discrete" tableValues="0.447059 0.447059"/><feFuncB type="discrete" tableValues="0.768627 0.768627"/><feFuncA type="linear" slope="0.4" intercept="0"/></feComponentTransfer><feGaussianBlur stdDeviation="1.77778 1.77778"/></filter><clipPath id="clip1"><rect x="589" y="220" width="188" height="188"/></clipPath></defs><g clip-path="url(#clip1)" transform="translate(-589 -220)"><g filter="url(#fx0)" transform="translate(588 219)"><g><g><g><g><path d="M7.75343 7.98468C7.62624 7.98468 7.52218 7.88062 7.52218 7.75343 7.52218 7.62624 7.62624 7.52218 7.75343 7.52218 7.88062 7.52218 7.98468 7.62624 7.98468 7.75343 7.98468 7.88062 7.88062 7.98468 7.75343 7.98468ZM8.27374 7.6089C8.26218 7.5665 8.24484 7.52603 8.22364 7.48942L8.27182 7.34489 8.16197 7.23504 8.01744 7.28322C7.9789 7.26202 7.93843 7.24468 7.89603 7.23312L7.83051 7.09822 7.67635 7.09822 7.6089 7.23312C7.5665 7.24468 7.52603 7.26202 7.48942 7.28322L7.34489 7.23504 7.23504 7.34489 7.28322 7.48942C7.26202 7.52796 7.24468 7.56843 7.23312 7.61083L7.09822 7.67635 7.09822 7.83051 7.23312 7.89796C7.24468 7.94036 7.26202 7.98083 7.28322 8.01744L7.23504 8.16197 7.34489 8.27182 7.48942 8.22364C7.52796 8.24484 7.56843 8.26218 7.61083 8.27374L7.67827 8.40864 7.83244 8.40864 7.89989 8.27374C7.94228 8.26218 7.98275 8.24484 8.01937 8.22364L8.1639 8.27182 8.27374 8.16197 8.22557 8.01744C8.24676 7.9789 8.26411 7.93843 8.27567 7.89603L8.41057 7.82859 8.41057 7.67442 8.27374 7.6089Z" stroke="#5DD5FF" stroke-width="0.106667" fill="none"/></g></g></g></g></g><g><g><g><path d="M684.5 338.625C671.781 338.625 661.375 328.219 661.375 315.5 661.375 302.781 671.781 292.375 684.5 292.375 697.219 292.375 707.625 302.781 707.625 315.5 707.625 328.219 697.219 338.625 684.5 338.625ZM736.531 301.047C735.375 296.807 733.641 292.76 731.521 289.099L736.339 274.646 725.354 263.661 710.901 268.479C707.047 266.359 703 264.625 698.76 263.469L692.208 249.979 676.792 249.979 670.047 263.469C665.807 264.625 661.76 266.359 658.099 268.479L643.646 263.661 632.661 274.646 637.479 289.099C635.359 292.953 633.625 297 632.469 301.24L618.979 307.792 618.979 323.208 632.469 329.953C633.625 334.193 635.359 338.24 637.479 341.901L632.661 356.354 643.646 367.339 658.099 362.521C661.953 364.641 666 366.375 670.24 367.531L676.984 381.021 692.401 381.021 699.146 367.531C703.385 366.375 707.432 364.641 711.094 362.521L725.547 367.339 736.531 356.354 731.714 341.901C733.833 338.047 735.568 334 736.724 329.76L750.214 323.016 750.214 307.599 736.531 301.047Z" stroke="#5DD5FF" stroke-width="10.6667" fill="none"/></g></g></g></g></svg>